<svg width="19" height="18" viewBox="0 0 19 18" fill="none" xmlns="http://www.w3.org/2000/svg">
<path d="M11.1795 8.99988L18.6521 1.9202C19.1159 1.48082 19.1159 0.768523 18.6521 0.329539C18.1883 -0.109846 17.4367 -0.109846 16.9731 0.329539L9.49995 7.40874L2.02732 0.329539C1.56352 -0.109846 0.811641 -0.109846 0.347853 0.329539C-0.115936 0.768924 -0.115951 1.48122 0.347853 1.9202L7.82099 8.99988L0.347853 16.0796C-0.115951 16.5189 -0.115951 17.2312 0.347853 17.6702C0.579655 17.89 0.883604 18 1.18738 18C1.49117 18 1.7953 17.89 2.02732 17.6704L9.49995 10.5912L16.9731 17.6704C17.2049 17.89 17.509 18 17.8126 18C18.1164 18 18.4205 17.89 18.6521 17.6704C19.1159 17.231 19.1159 16.5187 18.6521 16.0798L11.1795 8.99988Z" fill="black"/>
</svg>
