<svg width="12" height="22" viewBox="0 0 12 22" fill="none" xmlns="http://www.w3.org/2000/svg">
<path d="M6.97763 9.0067C4.76354 8.06634 4.38979 7.5968 4.38979 6.90037C4.38979 6.5761 4.52327 5.51805 6.24006 5.51805C7.63348 5.51805 8.49604 6.0128 8.96014 6.27851L9.72821 6.71922L10.8882 3.66291L10.3243 3.34298C9.46463 2.85567 8.53898 2.55732 7.51119 2.43837V0.000488281H4.45144V2.6043C2.19078 3.21043 0.76491 4.94733 0.76491 7.17066C0.76491 9.99339 3.05733 11.2725 5.29171 12.1478C7.31842 12.9697 7.59792 13.703 7.59792 14.3728C7.59792 15.3614 6.72613 16.0259 5.42882 16.0259C4.37544 16.0259 3.21709 15.6773 2.32988 15.0933L1.52718 14.5654L0.419434 17.6551L0.884464 17.9877C1.73996 18.5983 3.00315 19.0271 4.30422 19.1642L4.3044 21.6672H7.36364V18.969C9.71228 18.3562 11.2473 16.4969 11.2473 14.1767C11.2475 11.1561 9.08401 9.86623 6.97767 9.00683L6.97763 9.0067Z" fill="#C8C8C8"/>
</svg>
