<svg width="22" height="22" viewBox="0 0 22 22" fill="none" xmlns="http://www.w3.org/2000/svg">
<path d="M8.00777 1.953V10.026C8.00777 10.5439 7.80205 11.0407 7.4358 11.407C7.06954 11.7732 6.5727 11.979 6.05477 11.979H1.95307C1.43513 11.979 0.938318 11.7732 0.572047 11.407C0.205788 11.0407 7.00712e-05 10.5439 7.00712e-05 10.026V1.953C7.00712e-05 1.43506 0.205794 0.938248 0.572047 0.571977C0.938306 0.205718 1.43515 0 1.95307 0H6.05477C6.57271 0 7.06953 0.205724 7.4358 0.571977C7.80205 0.938236 8.00777 1.43508 8.00777 1.953ZM6.05452 13.4637H1.953C1.43506 13.4637 0.938247 13.6696 0.571977 14.0359C0.205718 14.4022 0 14.899 0 15.4169V19.7139C0 20.2319 0.205724 20.7287 0.571977 21.095C0.938236 21.4612 1.43508 21.6669 1.953 21.6669H6.0547C6.57264 21.6669 7.06946 21.4612 7.43573 21.095C7.80199 20.7287 8.0077 20.2319 8.0077 19.7139V15.4169C8.0077 14.899 7.80198 14.4022 7.43573 14.0359C7.06947 13.6696 6.57263 13.4637 6.0547 13.4637H6.05452ZM19.7137 8.65899L11.4454 8.65922C10.9275 8.65922 10.4306 8.86494 10.0644 9.2312C9.69812 9.59746 9.4924 10.0943 9.4924 10.6122V19.7141C9.4924 20.232 9.69812 20.7288 10.0644 21.0951C10.4306 21.4613 10.9275 21.6671 11.4454 21.6671H19.7137C20.2316 21.6671 20.7284 21.4613 21.0947 21.0951C21.4609 20.7288 21.6667 20.232 21.6667 19.7141V10.6122C21.6667 10.0943 21.4609 9.59747 21.0947 9.2312C20.7284 8.86494 20.2316 8.65922 19.7137 8.65922V8.65899ZM19.7137 0.000104663L11.4454 0.00033173C10.9275 0.00033173 10.4306 0.206056 10.0644 0.572309C9.69812 0.938568 9.4924 1.43541 9.4924 1.95334V5.22175C9.4924 5.73969 9.69812 6.23651 10.0644 6.60278C10.4306 6.96904 10.9275 7.17476 11.4454 7.17476H19.7137C20.2316 7.17476 20.7284 6.96903 21.0947 6.60278C21.4609 6.23652 21.6667 5.73968 21.6667 5.22175V1.95334C21.6667 1.4354 21.4609 0.938579 21.0947 0.572309C20.7284 0.20605 20.2316 0.00033173 19.7137 0.00033173V0.000104663Z" fill="#357EEC"/>
</svg>
