<svg width="22" height="22" viewBox="0 0 22 22" fill="none" xmlns="http://www.w3.org/2000/svg">
<path d="M5.41657 0.542145C4.81638 0.542145 4.33333 1.0254 4.33333 1.62538V4.87533C4.33333 5.47552 4.81659 5.95857 5.41657 5.95857C6.01676 5.95857 6.49981 5.47532 6.49981 4.87533V1.62538C6.49981 1.0252 6.01655 0.542145 5.41657 0.542145ZM16.2499 0.542145C15.6497 0.542145 15.1667 1.0254 15.1667 1.62538V4.87533C15.1667 5.47552 15.6499 5.95857 16.2499 5.95857C16.8501 5.95857 17.3331 5.47532 17.3331 4.87533V1.62538C17.3331 1.0252 16.8499 0.542145 16.2499 0.542145ZM1.08324 3.25048C0.48305 3.25048 0 3.73373 0 4.33371V7.58367H21.6667V4.33371C21.6667 3.73353 21.1834 3.25048 20.5834 3.25048H17.8751V4.87557C17.8751 5.76652 17.1409 6.50067 16.25 6.50067C15.3591 6.50067 14.6249 5.76652 14.6249 4.87557V3.25048H7.04157V4.87557C7.04157 5.76652 6.30742 6.50067 5.41647 6.50067C4.52553 6.50067 3.79138 5.76652 3.79138 4.87557V3.25048H1.08324ZM0 8.12548V20.0421C0 20.6423 0.483253 21.1254 1.08324 21.1254H20.5832C21.1834 21.1254 21.6665 20.6421 21.6665 20.0421V8.12548H0Z" fill="#C8C8C8"/>
</svg>
