<svg width="28" height="27" viewBox="0 0 28 27" fill="none" xmlns="http://www.w3.org/2000/svg">
<path d="M27.7606 2.41641L25.6388 0.265179C25.462 0.0883931 25.2556 0 25.0198 0C24.784 0 24.5483 0.0883931 24.4009 0.265179L12.0531 12.7898C11.9647 12.8782 11.9057 12.9666 11.8467 13.0846L10.4616 16.5915C10.3438 16.9157 10.4026 17.2988 10.668 17.5346C10.8448 17.7114 11.0512 17.7998 11.287 17.7998C11.4048 17.7998 11.4934 17.7704 11.6112 17.7408L15.0885 16.3557C15.2063 16.2967 15.2949 16.238 15.3832 16.1494L27.731 3.62476C28.0846 3.33018 28.0846 2.77024 27.7604 2.41645L27.7606 2.41641Z" fill="#357EEC"/>
<path d="M22.1024 11.9647C21.1299 11.9647 20.3342 12.7604 20.3342 13.733V23.2811H3.53646V5.00995H17.564C18.5365 5.00995 19.3323 4.21422 19.3323 3.24167C19.3323 2.26911 18.5366 1.47338 17.564 1.47338H1.76828C0.766369 1.47338 0 2.23954 0 3.18262V25.0491C0 26.0216 0.795733 26.8174 1.76828 26.8174H22.0434C23.0159 26.8174 23.8705 26.0216 23.8705 25.0491V13.7328C23.8705 12.7603 23.1041 11.9645 22.1022 11.9645L22.1024 11.9647Z" fill="#357EEC"/>
</svg>
