<svg width="366" height="74" viewBox="0 0 366 74" fill="none" xmlns="http://www.w3.org/2000/svg">
<path d="M3.56232 46.3766C3.52844 46.2484 3.49907 46.1281 3.47447 46.0161C3.49104 46.0915 3.50978 46.1708 3.5306 46.2536C3.54068 46.2938 3.55126 46.3348 3.56232 46.3766Z" fill="white"/>
<path d="M29.6934 47.6529L29.5059 47.5255L29.3042 47.629C26.2678 49.1878 22.8135 49.1469 20.7617 47.4813L20.5984 47.3487L20.3991 47.4158C16.0504 48.8786 13.2539 47.5916 11.9515 46.4336C11.6432 46.1595 11.3429 45.8761 11.0466 45.5919L10.8796 45.4317L10.6602 45.5056C8.4807 46.2398 6.98497 46.2331 5.91205 46.0555C5.3777 45.9671 4.94029 45.8353 4.5531 45.7185L4.51416 45.7068C4.40949 45.6752 4.30442 45.6435 4.2 45.6144C4.19731 44.073 5.19886 42.576 6.55321 41.1148C14.8056 43.2677 35.7458 45.808 53.4112 43.0938C53.7813 43.4841 54.0767 43.9774 54.3003 44.4828C54.4876 44.9062 54.613 45.312 54.6877 45.6259C54.6232 45.6436 54.5587 45.6619 54.4942 45.6802L54.4617 45.6894C54.1031 45.7911 53.6984 45.9059 53.1859 45.983C52.1534 46.1383 50.6484 46.1449 48.2755 45.499L48.0668 45.4422L47.9107 45.5919C46.7473 46.7079 45.6148 47.4435 44.1897 47.7668C42.7559 48.092 40.9839 48.0095 38.5275 47.4068L38.2685 47.3433L38.1196 47.5645C37.5439 48.4193 36.1793 48.9404 34.5069 48.9763C32.8581 49.0117 31.0409 48.5684 29.6934 47.6529Z" fill="white"/>
<path d="M24.3478 73.0123C24.3478 73.0123 24.3478 73.0123 24.3478 73.0123V73.0123Z" fill="white"/>
<path d="M5.91154 50.6707C5.20618 48.9124 4.6686 47.4614 4.3794 46.4642C4.75789 46.5783 5.22289 46.716 5.78732 46.8094C6.84235 46.984 8.22003 47.0002 10.0891 46.4807L17.6671 67.7178L11.4067 46.9716C11.419 46.9826 11.4314 46.9936 11.4438 47.0046C12.8569 48.261 15.651 49.5188 19.7833 48.401L23.3501 68.8162L20.7414 48.4126C22.9361 49.8617 26.1121 49.8606 28.9491 48.6405L30.0837 70.5832L30.1138 48.7811C31.4693 49.4585 33.0648 49.7716 34.5233 49.7402C35.9121 49.7104 37.2609 49.3638 38.1529 48.6402L35.5489 69.0073L39.1604 48.3356C41.2787 48.7841 42.9402 48.8337 44.3587 48.5119C45.5861 48.2335 46.607 47.6826 47.5676 46.9128L41.2318 67.9089L48.8918 46.442C50.899 46.9046 52.2792 46.8921 53.2995 46.7386C53.8193 46.6604 54.2386 46.5466 54.5822 46.4494C54.2941 47.447 53.7547 48.9037 53.0458 50.6707C52.1485 52.9074 51.0105 55.5683 49.8501 58.2814L49.8371 58.3119C47.9479 62.7291 45.9939 67.2977 44.9711 70.3071L44.9305 70.4267V70.4567C44.9211 70.4655 44.9093 70.4759 44.8946 70.4879C44.7752 70.5859 44.5522 70.7149 44.1905 70.8578C43.4745 71.1407 42.3895 71.4111 40.9835 71.6437C38.1838 72.1069 34.2554 72.3974 29.805 72.3974C27.8872 72.3974 26.0336 72.3435 24.3065 72.2446C22.4245 72.1369 20.6963 71.9761 19.2014 71.7746C17.446 71.5379 16.0406 71.2486 15.0907 70.9344C14.6106 70.7756 14.2917 70.6247 14.1081 70.4987C14.0719 70.4739 14.0456 70.4534 14.0269 70.4375V70.4267L13.9862 70.3071C12.9634 67.2977 11.0095 62.7292 9.12027 58.3119L9.10721 58.2814C7.94681 55.5683 6.80881 52.9074 5.91154 50.6707Z" fill="white"/>
<path d="M44.9624 70.4221C44.9624 70.4221 44.9616 70.4237 44.9591 70.4268C44.9611 70.4236 44.9624 70.4221 44.9624 70.4221Z" fill="white"/>
<path d="M13.986 70.3967C13.9863 70.3967 13.9884 70.3991 13.9916 70.404C13.9873 70.3992 13.9858 70.3967 13.986 70.3967Z" fill="white"/>
<path d="M5.59093 42.0897C-1.27235 36.383 2.66404 27.7546 9.40942 27.0584C16.1241 39.9862 36.683 42.3339 45.1269 41.8928C27.0993 41.9642 14.9997 34.7956 10.3645 26.5808C11.4429 20.9357 14.3216 20.1658 16.3829 19.6144C17.0168 19.4449 17.5733 19.2961 17.9764 19.0325C22.7556 27.3631 36.3056 28.8876 41.9272 28.5953C29.8583 28.6429 21.7121 23.9211 18.4937 18.463C18.5501 18.3462 18.5923 18.2155 18.6187 18.0682C18.6343 17.9812 18.6489 17.9009 18.6625 17.8259C18.8022 17.058 18.8423 16.8374 18.8423 15.5555C18.8423 14.572 19.3886 13.3921 19.7556 12.5992C19.9137 12.2577 20.0386 11.988 20.0722 11.8367C20.184 11.3342 20.2959 9.72605 19.8486 8.62046C19.4908 7.73599 19.5505 6.6438 19.625 6.20826C20.3947 6.68166 21.076 7.29869 21.7172 7.87934C22.8456 8.90133 23.8496 9.8106 24.9919 9.62554C29.425 8.90736 31.8615 10.8577 33.8296 12.433C34.6158 13.0623 35.3272 13.6318 36.0613 13.9474C38.9195 12.2856 43.4814 15.2267 47.6738 19.8163C46.2824 22.0664 45.4611 24.8406 45.4611 27.8417C45.4611 35.3585 50.6139 41.4521 56.9702 41.4521C57.0271 41.4521 57.0838 41.4516 57.1404 41.4506C56.6176 42.5378 55.6428 43.2668 54.1172 43.4968C18.8423 48.8153 9.21725 45.1049 5.59093 42.0897Z" fill="white"/>
<path d="M9.60539 7.57667C10.8391 9.89876 9.95685 12.7813 7.63475 14.0151C5.31266 15.2488 2.43009 14.3665 1.19635 12.0444C0.626943 11.3486 -0.040352 8.92752 1.84571 4.81042C2.06467 4.09504 2.03977 2.13143 0.188477 0C2.8724 1.66908 8.51327 5.52112 9.60539 7.57667Z" fill="white"/>
<path d="M9.08781 24.7376C9.69622 22.6261 10.586 21.1977 11.6442 20.2138C12.4621 19.4534 13.336 19.0047 14.1261 18.7038L11.1113 12.5579C11.0919 12.5153 11.0685 12.4757 11.042 12.4394C10.5957 13.7192 9.6845 14.8406 8.39321 15.5266C7.21962 16.1502 5.9238 16.3123 4.71364 16.0765L9.08781 24.7376Z" fill="white"/>
<path d="M118.095 52.5408H100.298L96.9033 60.7545H87.8135L104.898 22.4239H113.659L130.798 60.7545H121.49L118.095 52.5408ZM115.302 45.8056L109.224 31.1305L103.146 45.8056H115.302Z" fill="white"/>
<path d="M151.367 22.4239C154.762 22.4239 157.701 22.9898 160.183 24.1214C162.702 25.2531 164.637 26.8593 165.987 28.9401C167.338 31.0209 168.013 33.485 168.013 36.3325C168.013 39.1434 167.338 41.6075 165.987 43.7248C164.637 45.8056 162.702 47.4118 160.183 48.5435C157.701 49.6386 154.762 50.1862 151.367 50.1862H143.646V60.7545H134.775V22.4239H151.367ZM150.874 42.9582C153.539 42.9582 155.565 42.3923 156.952 41.2607C158.339 40.0925 159.033 38.4498 159.033 36.3325C159.033 34.1786 158.339 32.5359 156.952 31.4042C155.565 30.2361 153.539 29.652 150.874 29.652H143.646V42.9582H150.874Z" fill="white"/>
<path d="M190.938 22.4239C194.333 22.4239 197.272 22.9898 199.754 24.1214C202.273 25.2531 204.208 26.8593 205.558 28.9401C206.909 31.0209 207.584 33.485 207.584 36.3325C207.584 39.1434 206.909 41.6075 205.558 43.7248C204.208 45.8056 202.273 47.4118 199.754 48.5435C197.272 49.6386 194.333 50.1862 190.938 50.1862H183.217V60.7545H174.346V22.4239H190.938ZM190.445 42.9582C193.11 42.9582 195.136 42.3923 196.523 41.2607C197.911 40.0925 198.604 38.4498 198.604 36.3325C198.604 34.1786 197.911 32.5359 196.523 31.4042C195.136 30.2361 193.11 29.652 190.445 29.652H183.217V42.9582H190.445Z" fill="white"/>
<path d="M232.796 61.4116C228.89 61.4116 225.349 60.572 222.173 58.8927C219.034 57.177 216.551 54.8224 214.726 51.829C212.937 48.799 212.043 45.3858 212.043 41.5892C212.043 37.7927 212.937 34.3977 214.726 31.4042C216.551 28.3743 219.034 26.0197 222.173 24.3405C225.349 22.6247 228.908 21.7668 232.851 21.7668C236.173 21.7668 239.166 22.3509 241.831 23.5191C244.533 24.6873 246.796 26.3665 248.621 28.5568L242.926 33.8136C240.335 30.8202 237.122 29.3234 233.289 29.3234C230.916 29.3234 228.799 29.8528 226.937 30.9114C225.075 31.9336 223.615 33.3755 222.556 35.2373C221.534 37.0991 221.023 39.2164 221.023 41.5892C221.023 43.9621 221.534 46.0794 222.556 47.9411C223.615 49.8029 225.075 51.2631 226.937 52.3218C228.799 53.3439 230.916 53.855 233.289 53.855C237.122 53.855 240.335 52.34 242.926 49.3101L248.621 54.5668C246.796 56.7937 244.533 58.4912 241.831 59.6593C239.13 60.8275 236.118 61.4116 232.796 61.4116Z" fill="white"/>
<path d="M279.106 52.5408H261.31L257.915 60.7545H248.825L265.91 22.4239H274.671L291.81 60.7545H282.501L279.106 52.5408ZM276.314 45.8056L270.236 31.1305L264.158 45.8056H276.314Z" fill="white"/>
<path d="M309.75 45.6961L304.603 51.0623V60.7545H295.787V22.4239H304.603V40.3298L321.578 22.4239H331.435L315.555 39.5084L332.365 60.7545H322.016L309.75 45.6961Z" fill="white"/>
<path d="M366 53.636V60.7545H336.321V22.4239H365.288V29.5425H345.137V37.8657H362.933V44.7652H345.137V53.636H366Z" fill="white"/>
</svg>
