<svg width="22" height="22" viewBox="0 0 22 22" fill="none" xmlns="http://www.w3.org/2000/svg">
<path d="M11.1042 0.000569072C8.30287 0.000569072 5.61626 1.11331 3.63538 3.09427C1.65443 5.07506 0.541687 7.76171 0.541687 10.5631C0.541687 13.3644 1.65443 16.051 3.63538 18.0319C5.61618 20.0128 8.30283 21.1256 11.1042 21.1256C13.9055 21.1256 16.5921 20.0128 18.573 18.0319C20.5539 16.0511 21.6667 13.3644 21.6667 10.5631C21.6637 7.76256 20.55 5.07797 18.5697 3.0975C16.5895 1.11719 13.9046 0.0034792 11.1041 0.000488281L11.1042 0.000569072ZM11.8587 10.5629C11.8587 10.763 11.7791 10.955 11.6377 11.0964C11.4962 11.2379 11.3042 11.3175 11.1042 11.3175H5.0686C4.79894 11.3175 4.54996 11.1736 4.41513 10.9401C4.28046 10.7068 4.28046 10.4191 4.41513 10.1858C4.54996 9.95225 4.79894 9.80842 5.0686 9.80842H10.35L10.3498 4.52744C10.3498 4.25777 10.4937 4.0088 10.7272 3.87396C10.9605 3.73929 11.2482 3.73929 11.4815 3.87396C11.715 4.00879 11.8589 4.25777 11.8589 4.52744L11.8587 10.5629Z" fill="#C8C8C8"/>
</svg>
