<svg width="9" height="31" viewBox="0 0 9 31" fill="none" xmlns="http://www.w3.org/2000/svg">
<path d="M9 15.5C9 17.8317 6.98537 19.7218 4.5 19.7218C2.01463 19.7218 0 17.8317 0 15.5C0 13.1683 2.01463 11.2782 4.5 11.2782C6.98537 11.2782 9 13.1683 9 15.5Z" fill="#357EEC"/>
<path d="M9 26.7782C9 29.1099 6.98537 31 4.5 31C2.01463 31 0 29.1099 0 26.7782C0 24.4465 2.01463 22.5564 4.5 22.5564C6.98537 22.5564 9 24.4465 9 26.7782Z" fill="#357EEC"/>
<path d="M9 4.22179C9 6.5535 6.98537 8.44358 4.5 8.44358C2.01463 8.44358 0 6.5535 0 4.22179C0 1.89008 2.01463 0 4.5 0C6.98537 0 9 1.89008 9 4.22179Z" fill="#357EEC"/>
</svg>
