<svg width="22" height="18" viewBox="0 0 22 18" fill="none" xmlns="http://www.w3.org/2000/svg">
<path d="M21.6663 2.3338V4.50048H0.000371217V2.3338C0.000371217 1.75926 0.228521 1.20811 0.634944 0.801687C1.04119 0.395445 1.59233 0.167114 2.16687 0.167114H19.5002C20.0747 0.167114 20.6258 0.395445 21.0321 0.801687C21.4385 1.20811 21.6667 1.75926 21.6667 2.3338H21.6663ZM21.6663 6.66698V15.3336C21.6663 15.9082 21.4381 16.4593 21.0317 16.8657C20.6255 17.272 20.0743 17.5003 19.4998 17.5003H2.1665C1.59196 17.5003 1.04081 17.272 0.634573 16.8657C0.22815 16.4593 0 15.9082 0 15.3336V6.66698H21.6663ZM12.9996 11.0002L12.9998 11.0003C12.9998 10.7129 12.8856 10.4374 12.6825 10.2343C12.4793 10.0312 12.2038 9.91692 11.9164 9.91692H4.33337C3.94635 9.91692 3.58872 10.1235 3.39521 10.4586C3.2017 10.7938 3.2017 11.2067 3.39521 11.5419C3.58872 11.877 3.94635 12.0836 4.33337 12.0836H11.9164C12.2038 12.0836 12.4793 11.9695 12.6825 11.7662C12.8856 11.5631 12.9998 11.2876 12.9998 11.0004L12.9996 11.0002ZM18.4164 11.0002V11.0003C18.4164 10.7129 18.3023 10.4374 18.0992 10.2343C17.896 10.0312 17.6204 9.91692 17.3331 9.91692H15.1664C14.7794 9.91692 14.4218 10.1235 14.2283 10.4586C14.0347 10.7938 14.0347 11.2067 14.2283 11.5419C14.4218 11.877 14.7794 12.0836 15.1664 12.0836H17.3331C17.6204 12.0836 17.896 11.9695 18.0992 11.7662C18.3023 11.5631 18.4164 11.2876 18.4164 11.0004V11.0002Z" fill="#C8C8C8"/>
</svg>
