<svg width="19" height="19" viewBox="0 0 19 19" fill="none" xmlns="http://www.w3.org/2000/svg">
<path fill-rule="evenodd" clip-rule="evenodd" d="M0.843345 11.1889C0.377584 11.1889 0 10.8112 0 10.3453V8.65473C0 8.18882 0.376687 7.81109 0.843345 7.81109H7.81109V0.843345C7.81109 0.377584 8.18882 0 8.65473 0H10.3453C10.8112 0 11.1889 0.376687 11.1889 0.843345V7.81109H18.1567C18.6224 7.81109 19 8.18882 19 8.65473V10.3453C19 10.8112 18.6233 11.1889 18.1567 11.1889H11.1889V18.1567C11.1889 18.6224 10.8112 19 10.3453 19H8.65473C8.18882 19 7.81109 18.6233 7.81109 18.1567V11.1889H0.843345Z" fill="white"/>
</svg>
