<svg width="19" height="28" viewBox="0 0 19 28" fill="none" xmlns="http://www.w3.org/2000/svg">
<path d="M11.8776 25.1803C11.8776 26.7375 10.6151 28 9.05791 28C7.5007 28 6.23848 26.7375 6.23848 25.1803C6.23848 23.6231 7.5007 22.3606 9.05791 22.3606C10.6151 22.3606 11.8776 23.6231 11.8776 25.1803Z" fill="#357EEC"/>
<path d="M12.4063 17.4615C16.0365 16.0164 18.3274 12.3862 18.0808 8.47399C17.7988 3.92748 14.1685 0.297087 9.6219 0.0151249C7.08424 -0.125749 4.68769 0.719967 2.8548 2.44711C1.05736 4.13882 0 6.57081 0 9.03798C0 10.4125 1.09254 11.5051 2.46711 11.5051C3.84167 11.5051 4.93421 10.4125 4.93421 9.03798C4.93421 7.87489 5.39248 6.81746 6.23823 6.042C7.08418 5.26661 8.17678 4.87891 9.33987 4.94946C11.3841 5.09034 13.0407 6.74691 13.1815 8.79114C13.2873 10.5534 12.2299 12.2099 10.5733 12.8797C8.14135 13.8313 6.59055 16.087 6.59055 18.6599C6.59055 20.0344 7.68309 21.127 9.05766 21.127C10.4322 21.127 11.5248 20.0344 11.5248 18.6599C11.525 18.1313 11.8773 17.673 12.4061 17.4616L12.4063 17.4615Z" fill="#357EEC"/>
</svg>
