<svg width="20" height="22" viewBox="0 0 20 22" fill="none" xmlns="http://www.w3.org/2000/svg">
<path d="M6.23999 0.677572C6.23999 0.303663 6.54317 0.000488281 6.91707 0.000488281H12.3337C12.7077 0.000488281 13.0108 0.303663 13.0108 0.677572V3.38591C13.0108 3.75981 12.7077 4.06299 12.3337 4.06299H6.91707C6.54317 4.06299 6.23999 3.75981 6.23999 3.38591V0.677572Z" fill="#C8C8C8"/>
<path fill-rule="evenodd" clip-rule="evenodd" d="M3.53166 1.35465H4.88582V4.51443C4.88582 5.01303 5.31022 5.41715 5.83374 5.41715H13.4171C13.9406 5.41715 14.365 5.01303 14.365 4.51443V1.35465H15.7192C17.5888 1.35465 19.1046 2.87039 19.1046 4.74007V18.2817C19.1046 20.1514 17.5888 21.6672 15.7192 21.6672H3.53166C1.66198 21.6672 0.14624 20.1514 0.14624 18.2817V4.74007C0.14624 2.87039 1.66198 1.35465 3.53166 1.35465ZM13.6879 16.9276C13.6879 17.3015 13.3847 17.6047 13.0108 17.6047C12.6369 17.6047 12.3337 17.3015 12.3337 16.9276V8.80257C12.3337 8.42866 12.6369 8.12549 13.0108 8.12549C13.3847 8.12549 13.6879 8.42866 13.6879 8.80257V16.9276ZM9.62541 17.6047C9.99932 17.6047 10.3025 17.3015 10.3025 16.9276V11.5109C10.3025 11.137 9.99932 10.8338 9.62541 10.8338C9.2515 10.8338 8.94833 11.137 8.94833 11.5109V16.9276C8.94833 17.3015 9.2515 17.6047 9.62541 17.6047ZM6.91707 16.9276C6.91707 17.3015 6.6139 17.6047 6.23999 17.6047C5.86608 17.6047 5.56291 17.3015 5.56291 16.9276V14.2192C5.56291 13.8453 5.86608 13.5422 6.23999 13.5422C6.6139 13.5422 6.91707 13.8453 6.91707 14.2192V16.9276Z" fill="#C8C8C8"/>
</svg>
