<svg width="29" height="29" viewBox="0 0 29 29" fill="none" xmlns="http://www.w3.org/2000/svg">
<path d="M2.63657 14.4997C2.63657 7.94763 7.94802 2.63618 14.5001 2.63618C18.0126 2.63618 21.1696 4.16216 23.3429 6.59067H19.7726C19.0446 6.59067 18.4545 7.18074 18.4545 7.90876C18.4545 8.63678 19.0446 9.22708 19.7726 9.22708H26.3636C27.0916 9.22708 27.6817 8.63678 27.6817 7.90876V1.31832C27.6817 0.590293 27.0916 0 26.3636 0C25.6356 0 25.0455 0.590293 25.0455 1.31832V4.54812C22.4027 1.74907 18.6562 0 14.5 0C6.49215 0 0 6.49158 0 14.5C0 22.5084 6.49158 29 14.5 29C22.5084 29 29 22.5084 29 14.5C29 13.772 28.4097 13.1819 27.6817 13.1819C26.9537 13.1819 26.3636 13.772 26.3636 14.5C26.3636 21.052 21.0521 26.3635 14.5001 26.3635C7.94808 26.3635 2.63663 21.052 2.63663 14.5L2.63657 14.4997Z" fill="#357EEC"/>
</svg>
