<svg width="28" height="16" viewBox="0 0 28 16" fill="none" xmlns="http://www.w3.org/2000/svg">
<path d="M27.8233 7.06811C26.4685 5.30097 21.727 0 14.011 0C6.295 0 1.58293 5.30108 0.198755 7.06811C-0.0662517 7.39207 -0.0662517 7.86332 0.198755 8.18728C1.55358 9.95441 6.295 15.2554 14.011 15.2554C21.727 15.2554 26.4391 9.9543 27.8233 8.18728C28.0589 7.86331 28.0589 7.39206 27.8233 7.06811ZM14.011 13.3116C10.8597 13.3116 8.32708 10.7789 8.32708 7.62767C8.32708 4.47636 10.8598 1.94373 14.011 1.94373C17.1623 1.94373 19.695 4.47647 19.695 7.62767C19.695 10.779 17.1624 13.3116 14.011 13.3116Z" fill="#357EEC"/>
<path d="M17.6629 7.62767C17.6629 9.6446 16.0278 11.2796 14.011 11.2796C11.9941 11.2796 10.3591 9.64455 10.3591 7.62767C10.3591 5.61078 11.9941 3.97576 14.011 3.97576C16.0278 3.97576 17.6629 5.61078 17.6629 7.62767Z" fill="#357EEC"/>
</svg>
